<svg xmlns="http://www.w3.org/2000/svg" xmlns:xlink="http://www.w3.org/1999/xlink" viewBox="0 0 256.68 8.05" xmlns:v="https://vecta.io/nano"><g fill="#414042"><path d="M6.13 1.72v3.15h2.3V3.2h-.77v.9H6.9V2.49h2.29v3.06H5.37V1.72H0v4.6h3.84V3.18H1.53v1.66h.77v-.89h.77v1.6H.77V2.49H4.6v3.83h5.36v-4.6H6.13zm10.72 3.15h2.31V3.2h-.77v.9h-.76V2.49h2.29v3.06h-3.83V1.72h-5.36v4.6h3.83V3.18h-2.3v1.66h.77v-.89h.76v1.6H11.5V2.49h3.82v3.83h5.37v-4.6h-3.84v3.15z"/><use xlink:href="#B"/><use xlink:href="#C"/><path d="M49.03 4.87h2.3V3.2h-.77v.9h-.76V2.49h2.3v3.06h-3.83V1.72H42.9v4.6h3.84V3.18h-2.3v1.66h.77v-.89h.76v1.6h-2.3V2.49h3.83v3.83h5.37v-4.6h-3.84v3.15zm10.73 0h2.3V3.2h-.77v.9h-.76V2.49h2.29v3.06H59V1.72h-5.37v4.6h3.83V3.18h-2.3v1.66h.77v-.89h.76v1.6H54.4V2.49h3.83v3.83h5.36v-4.6h-3.83v3.15z"/><use xlink:href="#D"/><use xlink:href="#E"/><path d="M91.93 4.87h2.31V3.2h-.77v.9h-.76V2.49H95v3.06h-3.83V1.72h-5.36v4.6h3.83V3.18h-2.3v1.66h.77v-.89h.76v1.6h-2.29V2.49h3.82v3.83h5.37v-4.6h-3.84v3.15z"/><use xlink:href="#B" x="75.08"/><use xlink:href="#C" x="75.08"/><use xlink:href="#F"/><path d="M0 0h127.95v.77H0zm0 7.28h129.21v.77H0z"/><use xlink:href="#E" x="53.65"/><use xlink:href="#C" x="107.28"/><use xlink:href="#F" x="32.2"/><use xlink:href="#C" x="128.73"/><path d="M177.76 4.87h2.31V3.2h-.78v.9h-.76V2.49h2.3v3.06H177V1.72h-5.37v4.6h3.84V3.18h-2.3v1.66h.77v-.89h.76v1.6h-2.3V2.49h3.83v3.83h5.37v-4.6h-3.84v3.15zm10.73 0h2.3V3.2h-.77v.9h-.76V2.49h2.29v3.06h-3.82V1.72h-5.37v4.6h3.83V3.18h-2.3v1.66h.77v-.89h.76v1.6h-2.29V2.49h3.83v3.83h5.36v-4.6h-3.83v3.15z"/><use xlink:href="#D" x="128.73"/><path d="M209.94 4.87h2.3V3.2h-.77v.9h-.76V2.49H213v3.06h-3.82V1.72h-5.37v4.6h3.84V3.18h-2.31v1.66h.77v-.89h.76v1.6h-2.29V2.49h3.83v3.83h5.36v-4.6h-3.83v3.15z"/><use xlink:href="#C" x="182.36"/><use xlink:href="#F" x="107.28"/><use xlink:href="#C" x="203.81"/><path d="M252.84 1.72v3.15h2.31V3.2h-.78v.9h-.76V2.49h2.3v3.06h-3.83V1.72h-5.37v4.6h3.84V3.18h-2.3v1.66h.77v-.89h.76v1.6h-2.3V2.49h3.83v3.83h5.37v-4.6h-3.84zM127.76 0h128.91v.77H127.76zm.97 7.28h127.95v.77H128.73z"/></g><defs ><path id="B" d="M27.58 4.87h2.3V3.2h-.77v.9h-.76V2.49h2.29v3.06h-3.82V1.72h-5.37v4.6h3.84V3.18h-2.31v1.66h.77v-.89h.77v1.6h-2.3V2.49h3.83v3.83h5.37v-4.6h-3.84v3.15z"/><path id="C" d="M38.31 4.87h2.3V3.2h-.77v.9h-.76V2.49h2.29v3.06h-3.83V1.72h-5.36v4.6h3.83V3.18h-2.3v1.66h.77v-.89h.76v1.6h-2.29V2.49h3.82v3.83h5.37v-4.6h-3.83v3.15z"/><path id="D" d="M70.48 4.87h2.31V3.2h-.77v.9h-.77V2.49h2.3v3.06h-3.83V1.72h-5.37v4.6h3.84V3.18h-2.3v1.66h.77v-.89h.76v1.6h-2.29V2.49h3.82v3.83h5.37v-4.6h-3.84v3.15z"/><path id="E" d="M81.21 4.87h2.3V3.2h-.77v.9h-.76V2.49h2.29v3.06h-3.82V1.72h-5.37v4.6h3.84V3.18h-2.31v1.66h.77v-.89h.76v1.6h-2.29V2.49h3.83v3.83h5.36v-4.6h-3.83v3.15z"/><path id="F" d="M124.11 4.87h2.3V3.2h-.77v.9h-.76V2.49h2.3v3.06h-3.83V1.72h-5.37v4.6h3.84V3.18h-2.31v1.66h.78v-.89h.76v1.6h-2.3V2.49h3.83v3.83h5.37v-4.6h-3.84v3.15z"/></defs></svg>